<svg width="784" height="812" viewBox="0 0 784 812" fill="none" xmlns="http://www.w3.org/2000/svg">
<g clip-path="url(#clip0)">
<path d="M728.72 0L721.41 7.04L641.89 83.67L507.08 213.58L513.43 769.66L0.669983 643.42V275.37L194.1 52.39L728.72 0Z" fill="#373E46"/>
<path opacity="0.1" d="M728.72 0L721.41 7.04L641.89 83.67L507.08 213.58L513.43 769.66L0.669983 643.42V275.37L194.1 52.39L728.72 0Z" fill="black"/>
<path d="M783.79 353.28L769.02 730.73L239.77 811.33L0.669983 643.42V280.74L507.08 213.58L783.79 353.28Z" fill="#373E46"/>
<path d="M783.12 353.28L768.34 730.73L239.1 811.33L0 643.42V280.74L506.41 213.58L783.12 353.28Z" fill="#373E46"/>
<path opacity="0.1" d="M239.77 421.78V811.33L0.669983 643.42V280.98L239.77 421.78Z" fill="black"/>
<path opacity="0.1" d="M721.41 7.04004L641.89 83.67L258.58 126.27L190.07 59.1L721.41 7.04004Z" fill="black"/>
<path opacity="0.1" d="M507.08 213.58L512.45 773.72L769.02 730.73L783.79 353.28L507.08 213.58Z" fill="black"/>
<path d="M783.79 353.28L680.36 343.87L431.91 220.86L507.08 213.58L783.79 353.28Z" fill="#373E46"/>
<path d="M194.1 52.39L262.61 119.55L722 68.51L728.72 0L194.1 52.39Z" fill="#373E46"/>
<path d="M347.9 259.92C347.914 263.104 347.579 266.279 346.9 269.39C345.646 275.019 343.265 280.336 339.9 285.02C338.764 286.588 337.528 288.081 336.2 289.49C329.264 296.841 319.944 301.494 309.9 302.62C308.26 302.81 306.611 302.903 304.96 302.9C299.575 302.898 294.238 301.881 289.23 299.9C287.796 299.341 286.394 298.703 285.03 297.99C275.309 292.892 267.902 284.276 264.32 273.9C263.798 272.414 263.367 270.898 263.03 269.36C262.76 268.18 262.55 266.98 262.38 265.77C262.115 263.821 261.982 261.857 261.98 259.89C261.974 255.634 262.604 251.4 263.85 247.33C264.09 246.51 264.37 245.7 264.67 244.89C267.424 237.508 272.153 231.025 278.341 226.148C284.529 221.271 291.938 218.188 299.759 217.236C307.58 216.283 315.513 217.498 322.69 220.747C329.868 223.996 336.015 229.155 340.46 235.66V235.66C345.338 242.807 347.933 251.267 347.9 259.92V259.92Z" fill="#EEEFF0"/>
<path d="M344.55 290.81C376.08 290.81 401.64 255.329 401.64 211.56C401.64 167.791 376.08 132.31 344.55 132.31C313.02 132.31 287.46 167.791 287.46 211.56C287.46 255.329 313.02 290.81 344.55 290.81Z" fill="#595959"/>
<path opacity="0.1" d="M731.09 468.5C762.62 468.5 788.18 433.019 788.18 389.25C788.18 345.481 762.62 310 731.09 310C699.56 310 674 345.481 674 389.25C674 433.019 699.56 468.5 731.09 468.5Z" fill="black"/>
<path d="M441.9 20.8199C419.021 20.8201 396.623 27.3853 377.364 39.7362C358.105 52.0871 342.794 69.7049 333.25 90.4981C323.706 111.291 320.328 134.386 323.519 157.042C326.71 179.697 336.334 200.962 351.25 218.31C353.56 221.01 356 223.6 358.55 226.04C372.125 239.291 388.666 249.11 406.8 254.68C409.8 255.61 412.9 256.43 416.01 257.1C431.913 260.608 448.362 260.846 464.36 257.8C467.54 257.21 470.7 256.48 473.79 255.61C492.588 250.415 509.823 240.684 523.98 227.27C526.747 224.663 529.383 221.927 531.89 219.06C547.009 201.774 556.829 180.5 560.175 157.781C563.522 135.061 560.254 111.859 550.761 90.9481C541.269 70.0373 525.954 52.3033 506.649 39.8668C487.344 27.4303 464.865 20.8177 441.9 20.8199ZM441.9 43.66C440.306 43.66 438.748 43.1872 437.422 42.3016C436.097 41.4159 435.064 40.1571 434.454 38.6844C433.844 37.2116 433.684 35.591 433.995 34.0275C434.306 32.464 435.074 31.0279 436.201 29.9007C437.328 28.7735 438.764 28.0058 440.328 27.6948C441.891 27.3838 443.512 27.5434 444.984 28.1535C446.457 28.7635 447.716 29.7966 448.602 31.122C449.487 32.4475 449.96 34.0058 449.96 35.5999C449.96 37.7376 449.111 39.7877 447.599 41.2992C446.088 42.8108 444.038 43.66 441.9 43.66Z" fill="#D1D1D1"/>
<path d="M549.39 290.82C571.647 290.82 589.69 263.156 589.69 229.03C589.69 194.904 571.647 167.24 549.39 167.24C527.133 167.24 509.09 194.904 509.09 229.03C509.09 263.156 527.133 290.82 549.39 290.82Z" fill="white"/>
<path opacity="0.1" d="M549.39 261.98C561.259 261.98 570.88 247.228 570.88 229.03C570.88 210.832 561.259 196.08 549.39 196.08C537.521 196.08 527.9 210.832 527.9 229.03C527.9 247.228 537.521 261.98 549.39 261.98Z" fill="black"/>
<path d="M441.93 590.36C519.084 590.36 581.63 521.201 581.63 435.89C581.63 350.579 519.084 281.42 441.93 281.42C364.776 281.42 302.23 350.579 302.23 435.89C302.23 521.201 364.776 590.36 441.93 590.36Z" fill="#7E7E7E"/>
<path opacity="0.1" d="M649.7 624.94C726.854 624.94 789.4 555.781 789.4 470.47C789.4 385.159 726.854 316 649.7 316C572.546 316 510 385.159 510 470.47C510 555.781 572.546 624.94 649.7 624.94Z" fill="black"/>
<path d="M334.47 290.82C356.727 290.82 374.77 263.156 374.77 229.03C374.77 194.904 356.727 167.24 334.47 167.24C312.213 167.24 294.17 194.904 294.17 229.03C294.17 263.156 312.213 290.82 334.47 290.82Z" fill="white"/>
<path opacity="0.1" d="M334.47 261.98C346.339 261.98 355.96 247.228 355.96 229.03C355.96 210.832 346.339 196.08 334.47 196.08C322.601 196.08 312.98 210.832 312.98 229.03C312.98 247.228 322.601 261.98 334.47 261.98Z" fill="black"/>
<path opacity="0.1" d="M350.52 217.98L351.92 67.83L343.23 210.25L350.52 217.98Z" fill="black"/>
<path opacity="0.1" d="M409.68 67.83L407.99 249C404.88 248.33 401.8 247.51 398.78 246.58L409.68 67.83Z" fill="black"/>
<path opacity="0.1" d="M467.44 67.83L465.77 247.55C462.68 248.42 459.52 249.15 456.34 249.74L467.44 67.83Z" fill="black"/>
<path opacity="0.1" d="M523.87 211L525.2 67.83L515.96 219.21L523.87 211Z" fill="black"/>
<path opacity="0.1" d="M549.48 137.68H334.38C327.753 137.68 322.38 143.053 322.38 149.68V203.59C322.38 210.217 327.753 215.59 334.38 215.59H549.48C556.107 215.59 561.48 210.217 561.48 203.59V149.68C561.48 143.053 556.107 137.68 549.48 137.68Z" fill="black"/>
<path d="M552.08 250.52C552.048 278.39 541.439 305.21 522.395 325.559C503.351 345.908 477.292 358.27 449.485 360.146C421.678 362.022 394.195 353.273 372.59 335.667C350.985 318.06 336.869 292.909 333.094 265.295C329.319 237.682 336.166 209.665 352.252 186.905C368.339 164.146 392.465 148.341 419.755 142.685C447.045 137.028 475.465 141.942 499.273 156.433C523.08 170.923 540.499 193.911 548.01 220.75C550.72 230.441 552.089 240.457 552.08 250.52Z" fill="#CDCDCD"/>
<path opacity="0.1" d="M548.01 220.75C547.137 220.894 546.254 220.968 545.37 220.97H338.51C337.622 220.968 336.736 220.894 335.86 220.75C341.239 201.631 351.682 184.32 366.085 170.646C380.489 156.971 398.318 147.44 417.69 143.06H466.18C485.552 147.44 503.381 156.971 517.785 170.646C532.188 184.32 542.631 201.631 548.01 220.75V220.75Z" fill="black"/>
<path d="M545.36 140.37H338.5C329.597 140.37 322.38 147.587 322.38 156.49V202.16C322.38 211.063 329.597 218.28 338.5 218.28H545.36C554.263 218.28 561.48 211.063 561.48 202.16V156.49C561.48 147.587 554.263 140.37 545.36 140.37Z" fill="#585858"/>
<path opacity="0.1" d="M348.8 210.22L351.92 159.18L351.45 210.22H348.8Z" fill="black"/>
<path opacity="0.1" d="M409.21 210.22L409.68 159.18L406.56 210.22H409.21Z" fill="black"/>
<path opacity="0.1" d="M467.44 159.18L466.96 210.22H464.32L467.44 159.18Z" fill="black"/>
<path opacity="0.1" d="M522.08 210.22L525.2 159.18L524.73 210.22H522.08Z" fill="black"/>
<path opacity="0.1" d="M400.29 251.87C408.453 251.87 415.07 245.253 415.07 237.09C415.07 228.927 408.453 222.31 400.29 222.31C392.127 222.31 385.51 228.927 385.51 237.09C385.51 245.253 392.127 251.87 400.29 251.87Z" fill="black"/>
<path d="M400.29 250.52C408.453 250.52 415.07 243.903 415.07 235.74C415.07 227.577 408.453 220.96 400.29 220.96C392.127 220.96 385.51 227.577 385.51 235.74C385.51 243.903 392.127 250.52 400.29 250.52Z" fill="#EEEFF0"/>
<path d="M400.29 242.46C404.001 242.46 407.01 239.451 407.01 235.74C407.01 232.029 404.001 229.02 400.29 229.02C396.579 229.02 393.57 232.029 393.57 235.74C393.57 239.451 396.579 242.46 400.29 242.46Z" fill="#373E46"/>
<path d="M401.63 234.4C402.37 234.4 402.97 233.8 402.97 233.06C402.97 232.32 402.37 231.72 401.63 231.72C400.89 231.72 400.29 232.32 400.29 233.06C400.29 233.8 400.89 234.4 401.63 234.4Z" fill="white"/>
<path opacity="0.1" d="M488.95 251.87C497.113 251.87 503.73 245.253 503.73 237.09C503.73 228.927 497.113 222.31 488.95 222.31C480.787 222.31 474.17 228.927 474.17 237.09C474.17 245.253 480.787 251.87 488.95 251.87Z" fill="black"/>
<path d="M488.95 250.52C497.113 250.52 503.73 243.903 503.73 235.74C503.73 227.577 497.113 220.96 488.95 220.96C480.787 220.96 474.17 227.577 474.17 235.74C474.17 243.903 480.787 250.52 488.95 250.52Z" fill="#EEEFF0"/>
<path d="M488.95 242.46C492.661 242.46 495.67 239.451 495.67 235.74C495.67 232.029 492.661 229.02 488.95 229.02C485.239 229.02 482.23 232.029 482.23 235.74C482.23 239.451 485.239 242.46 488.95 242.46Z" fill="#373E46"/>
<path d="M486.26 234.4C487 234.4 487.6 233.8 487.6 233.06C487.6 232.32 487 231.72 486.26 231.72C485.52 231.72 484.92 232.32 484.92 233.06C484.92 233.8 485.52 234.4 486.26 234.4Z" fill="white"/>
<path opacity="0.1" d="M444.62 325.74C469.103 325.74 488.95 305.893 488.95 281.41C488.95 256.927 469.103 237.08 444.62 237.08C420.137 237.08 400.29 256.927 400.29 281.41C400.29 305.893 420.137 325.74 444.62 325.74Z" fill="black"/>
<path d="M444.62 323.06C469.103 323.06 488.95 303.213 488.95 278.73C488.95 254.247 469.103 234.4 444.62 234.4C420.137 234.4 400.29 254.247 400.29 278.73C400.29 303.213 420.137 323.06 444.62 323.06Z" fill="#636363"/>
<path d="M783.12 355.29L777.01 486.53L774.54 539.56L765.66 730.06L236.41 812V421.11L783.12 355.29Z" fill="#373E46"/>
<path d="M0.669983 280.74L102.66 267.21L317.68 382.83L239.77 421.78L0.669983 280.74Z" fill="#373E46"/>
<path opacity="0.05" d="M0.669983 280.74L102.66 267.21L317.68 382.83L239.77 421.78L0.669983 280.74Z" fill="black"/>
<path opacity="0.1" d="M241.72 314.59L228.18 307.34C227.625 307.049 226.993 306.938 226.373 307.024C225.752 307.111 225.174 307.389 224.72 307.82L213.65 318.45C213.193 318.872 212.616 319.141 211.999 319.221C211.382 319.3 210.755 319.186 210.206 318.894C209.657 318.602 209.212 318.146 208.933 317.59C208.655 317.034 208.556 316.405 208.65 315.79L211.36 300.68C211.466 300.063 211.376 299.429 211.103 298.866C210.831 298.303 210.389 297.84 209.84 297.54L196.3 290.29C195.764 289.982 195.336 289.516 195.075 288.955C194.814 288.394 194.733 287.767 194.842 287.158C194.952 286.549 195.247 285.989 195.687 285.555C196.126 285.12 196.69 284.832 197.3 284.73L212.51 282.64C213.13 282.55 213.707 282.269 214.159 281.835C214.611 281.401 214.915 280.836 215.03 280.22L217.73 265.11C217.856 264.504 218.167 263.951 218.62 263.529C219.072 263.106 219.645 262.834 220.258 262.749C220.872 262.665 221.497 262.773 222.046 263.057C222.596 263.342 223.045 263.79 223.33 264.34L230.02 278.16C230.298 278.72 230.745 279.18 231.297 279.474C231.849 279.768 232.48 279.882 233.1 279.8L248.3 277.71C248.915 277.643 249.535 277.767 250.076 278.067C250.617 278.366 251.053 278.824 251.323 279.381C251.594 279.937 251.686 280.563 251.587 281.173C251.488 281.783 251.202 282.348 250.77 282.79L239.69 293.42C239.242 293.858 238.942 294.425 238.833 295.042C238.723 295.659 238.81 296.295 239.08 296.86L245.77 310.68C246.017 311.242 246.086 311.865 245.968 312.467C245.849 313.069 245.549 313.62 245.108 314.047C244.666 314.473 244.105 314.753 243.499 314.85C242.894 314.948 242.273 314.857 241.72 314.59Z" fill="black"/>
<path d="M239.71 311.79L227.71 305.37C227.219 305.108 226.658 305.007 226.107 305.082C225.556 305.158 225.042 305.405 224.64 305.79L214.82 315.22C214.419 315.604 213.907 315.852 213.357 315.928C212.807 316.003 212.248 315.903 211.758 315.641C211.269 315.379 210.875 314.969 210.632 314.47C210.39 313.97 210.312 313.407 210.41 312.86L212.81 299.46C212.909 298.912 212.832 298.346 212.59 297.845C212.347 297.344 211.951 296.932 211.46 296.67L199.46 290.25C198.968 289.989 198.571 289.579 198.328 289.078C198.084 288.578 198.005 288.012 198.103 287.464C198.201 286.916 198.47 286.413 198.872 286.028C199.274 285.642 199.788 285.395 200.34 285.32L213.83 283.46C214.38 283.384 214.892 283.137 215.293 282.752C215.693 282.368 215.962 281.866 216.06 281.32L218.46 267.91C218.545 267.349 218.81 266.83 219.215 266.431C219.62 266.033 220.143 265.776 220.706 265.7C221.268 265.623 221.841 265.731 222.337 266.007C222.834 266.283 223.228 266.712 223.46 267.23L229.4 279.48C229.641 279.982 230.035 280.394 230.526 280.656C231.017 280.919 231.579 281.018 232.13 280.94L245.61 279.09C246.161 279.012 246.721 279.111 247.212 279.372C247.703 279.634 248.099 280.043 248.342 280.543C248.585 281.043 248.664 281.607 248.566 282.155C248.469 282.702 248.201 283.205 247.8 283.59L237.9 293C237.505 293.379 237.24 293.873 237.141 294.411C237.042 294.95 237.116 295.505 237.35 296L243.29 308.26C243.55 308.759 243.643 309.328 243.555 309.884C243.468 310.439 243.204 310.952 242.804 311.347C242.403 311.742 241.887 311.998 241.33 312.078C240.773 312.158 240.205 312.057 239.71 311.79V311.79Z" fill="#EEEFF0"/>
<path opacity="0.1" d="M740.02 700.08L731.66 695.6C731.319 695.415 730.927 695.344 730.543 695.396C730.158 695.448 729.8 695.621 729.52 695.89L722.67 702.47C722.391 702.739 722.034 702.913 721.65 702.966C721.266 703.019 720.875 702.948 720.533 702.765C720.192 702.581 719.917 702.294 719.75 701.945C719.582 701.595 719.53 701.201 719.6 700.82L721.27 691.48C721.339 691.099 721.285 690.706 721.116 690.357C720.947 690.008 720.672 689.722 720.33 689.54L711.96 685.06C711.619 684.876 711.346 684.588 711.178 684.239C711.01 683.89 710.957 683.497 711.026 683.116C711.094 682.735 711.281 682.385 711.561 682.116C711.84 681.848 712.196 681.674 712.58 681.62L721.98 680.33C722.365 680.275 722.722 680.101 723.002 679.832C723.282 679.563 723.47 679.212 723.54 678.83L725.21 669.49C725.28 669.11 725.468 668.761 725.748 668.494C726.027 668.226 726.384 668.054 726.767 668.001C727.15 667.948 727.54 668.017 727.882 668.198C728.223 668.379 728.499 668.663 728.67 669.01L732.8 677.56C732.974 677.905 733.252 678.188 733.594 678.367C733.937 678.546 734.327 678.614 734.71 678.56L744.11 677.27C744.495 677.214 744.887 677.283 745.23 677.465C745.573 677.647 745.85 677.934 746.019 678.284C746.188 678.634 746.242 679.028 746.172 679.41C746.102 679.793 745.912 680.143 745.63 680.41L738.79 687C738.51 687.269 738.321 687.62 738.251 688.002C738.181 688.384 738.233 688.779 738.4 689.13L742.54 697.67C742.703 698.019 742.753 698.41 742.682 698.788C742.611 699.167 742.423 699.514 742.145 699.78C741.867 700.046 741.512 700.218 741.131 700.272C740.75 700.326 740.361 700.259 740.02 700.08V700.08Z" fill="black"/>
<path d="M738.79 698.35L731.36 694.35C731.058 694.188 730.712 694.126 730.373 694.172C730.033 694.219 729.717 694.372 729.47 694.61L723.4 700.44C723.152 700.677 722.835 700.829 722.495 700.875C722.155 700.921 721.81 700.859 721.507 700.697C721.205 700.535 720.961 700.282 720.811 699.974C720.66 699.666 720.611 699.318 720.67 698.98L722.15 690.69C722.212 690.352 722.165 690.004 722.015 689.695C721.866 689.386 721.623 689.132 721.32 688.97L713.9 685C713.616 684.829 713.391 684.576 713.255 684.274C713.119 683.972 713.078 683.636 713.138 683.31C713.198 682.984 713.355 682.684 713.59 682.45C713.824 682.216 714.124 682.059 714.45 682L722.78 680.85C723.121 680.806 723.439 680.654 723.687 680.417C723.935 680.179 724.101 679.869 724.16 679.53L725.65 671.24C725.711 670.902 725.878 670.592 726.127 670.354C726.375 670.117 726.692 669.963 727.033 669.917C727.373 669.87 727.72 669.933 728.023 670.095C728.326 670.257 728.57 670.511 728.72 670.82L732.38 678.4C732.531 678.709 732.775 678.963 733.079 679.124C733.382 679.286 733.729 679.347 734.07 679.3L742.41 678.15C742.751 678.104 743.098 678.166 743.401 678.329C743.704 678.491 743.948 678.746 744.097 679.055C744.247 679.365 744.295 679.714 744.235 680.052C744.174 680.391 744.008 680.702 743.76 680.94L737.69 686.77C737.441 687.007 737.274 687.317 737.213 687.655C737.152 687.992 737.2 688.341 737.35 688.65L741.02 696.23C741.166 696.538 741.21 696.884 741.148 697.22C741.085 697.555 740.918 697.861 740.671 698.096C740.424 698.331 740.11 698.482 739.772 698.528C739.434 698.573 739.09 698.511 738.79 698.35V698.35Z" fill="#D1D1D1"/>
<path opacity="0.1" d="M303.46 499.93L295.1 495.45C294.757 495.269 294.366 495.201 293.982 495.255C293.598 495.309 293.24 495.482 292.96 495.75L286.11 502.32C285.831 502.589 285.474 502.763 285.09 502.816C284.706 502.869 284.315 502.798 283.973 502.615C283.632 502.431 283.357 502.144 283.19 501.795C283.022 501.445 282.97 501.051 283.04 500.67L284.71 491.33C284.777 490.949 284.723 490.556 284.554 490.208C284.385 489.86 284.111 489.573 283.77 489.39L275.4 484.91C275.058 484.728 274.782 484.442 274.613 484.093C274.444 483.744 274.39 483.35 274.459 482.969C274.527 482.587 274.716 482.237 274.997 481.97C275.277 481.702 275.636 481.531 276.02 481.48L285.42 480.18C285.804 480.127 286.161 479.955 286.441 479.688C286.721 479.42 286.91 479.071 286.98 478.69L288.65 469.34C288.722 468.96 288.911 468.613 289.191 468.347C289.471 468.081 289.828 467.909 290.211 467.857C290.593 467.805 290.983 467.875 291.324 468.057C291.665 468.239 291.94 468.523 292.11 468.87L296.25 477.41C296.42 477.757 296.695 478.04 297.037 478.22C297.378 478.4 297.768 478.466 298.15 478.41L307.55 477.11C307.935 477.058 308.325 477.13 308.667 477.314C309.009 477.498 309.283 477.785 309.452 478.134C309.62 478.483 309.674 478.877 309.606 479.259C309.537 479.641 309.35 479.991 309.07 480.26L302.23 486.83C301.946 487.107 301.761 487.468 301.701 487.86C301.642 488.251 301.711 488.652 301.9 489L306.03 497.54C306.198 497.893 306.249 498.291 306.175 498.675C306.102 499.06 305.908 499.411 305.621 499.677C305.335 499.944 304.971 500.112 304.582 500.157C304.193 500.203 303.8 500.123 303.46 499.93V499.93Z" fill="black"/>
<path d="M302.23 498.21L294.81 494.21C294.506 494.05 294.159 493.989 293.818 494.036C293.478 494.082 293.16 494.234 292.91 494.47L286.84 500.3C286.592 500.536 286.275 500.689 285.935 500.735C285.595 500.781 285.25 500.719 284.947 500.557C284.645 500.395 284.401 500.142 284.251 499.834C284.1 499.526 284.051 499.178 284.11 498.84L285.59 490.56C285.653 490.222 285.607 489.873 285.458 489.564C285.308 489.254 285.064 489.001 284.76 488.84L277.34 484.84C277.051 484.673 276.821 484.42 276.682 484.117C276.542 483.814 276.499 483.475 276.559 483.146C276.619 482.818 276.78 482.516 277.018 482.283C277.256 482.049 277.561 481.894 277.89 481.84L286.22 480.69C286.562 480.644 286.88 480.49 287.128 480.251C287.376 480.012 287.541 479.7 287.6 479.36L289.09 471.08C289.152 470.742 289.318 470.432 289.567 470.194C289.815 469.956 290.132 469.803 290.473 469.757C290.813 469.71 291.16 469.773 291.463 469.935C291.766 470.097 292.01 470.351 292.16 470.66L295.82 478.23C295.97 478.54 296.214 478.795 296.518 478.956C296.822 479.118 297.169 479.179 297.51 479.13L305.9 478C306.241 477.949 306.589 478.009 306.894 478.17C307.199 478.331 307.444 478.585 307.595 478.895C307.745 479.205 307.793 479.555 307.731 479.894C307.669 480.233 307.501 480.543 307.25 480.78L301.18 486.61C300.931 486.848 300.763 487.16 300.702 487.5C300.641 487.839 300.689 488.19 300.84 488.5L304.51 496.07C304.669 496.384 304.721 496.741 304.66 497.088C304.599 497.434 304.427 497.752 304.17 497.992C303.914 498.233 303.586 498.385 303.236 498.424C302.887 498.463 302.534 498.388 302.23 498.21V498.21Z" fill="#D1D1D1"/>
<path opacity="0.1" d="M740.02 620.83L731.66 616.35C731.319 616.165 730.927 616.094 730.543 616.146C730.158 616.198 729.8 616.371 729.52 616.64L722.67 623.21C722.392 623.478 722.035 623.651 721.653 623.704C721.27 623.757 720.88 623.687 720.539 623.505C720.199 623.323 719.924 623.038 719.755 622.69C719.587 622.342 719.532 621.95 719.6 621.57L721.27 612.23C721.349 611.84 721.301 611.435 721.131 611.074C720.962 610.714 720.681 610.418 720.33 610.23L711.96 605.76C711.619 605.576 711.346 605.288 711.178 604.939C711.01 604.59 710.957 604.197 711.026 603.816C711.094 603.434 711.281 603.085 711.561 602.816C711.84 602.548 712.196 602.374 712.58 602.32L721.98 601.02C722.364 600.969 722.723 600.797 723.003 600.529C723.283 600.262 723.471 599.912 723.54 599.53L725.21 590.19C725.28 589.81 725.468 589.461 725.748 589.194C726.027 588.926 726.384 588.754 726.767 588.701C727.15 588.648 727.54 588.717 727.882 588.898C728.223 589.079 728.499 589.363 728.67 589.71L732.8 598.25C732.973 598.596 733.25 598.879 733.593 599.059C733.936 599.239 734.327 599.305 734.71 599.25L744.11 597.96C744.495 597.904 744.887 597.973 745.23 598.155C745.573 598.337 745.85 598.624 746.019 598.974C746.188 599.324 746.242 599.718 746.172 600.1C746.102 600.483 745.912 600.833 745.63 601.1L738.79 607.67C738.51 607.939 738.321 608.29 738.251 608.672C738.181 609.054 738.233 609.449 738.4 609.8L742.54 618.34C742.734 618.691 742.808 619.096 742.751 619.493C742.694 619.89 742.509 620.258 742.223 620.54C741.938 620.822 741.568 621.003 741.17 621.055C740.773 621.107 740.369 621.028 740.02 620.83Z" fill="black"/>
<path d="M738.79 619.1L731.36 615.1C731.058 614.936 730.712 614.873 730.372 614.92C730.032 614.967 729.716 615.121 729.47 615.36L723.4 621.19C723.152 621.427 722.835 621.579 722.495 621.625C722.155 621.671 721.81 621.609 721.507 621.447C721.205 621.285 720.961 621.032 720.811 620.724C720.66 620.416 720.611 620.068 720.67 619.73L722.15 611.44C722.212 611.102 722.165 610.754 722.015 610.445C721.866 610.136 721.623 609.882 721.32 609.72L713.9 605.72C713.616 605.549 713.391 605.296 713.255 604.994C713.119 604.692 713.078 604.356 713.138 604.03C713.198 603.704 713.355 603.404 713.59 603.17C713.824 602.936 714.124 602.779 714.45 602.72L722.78 601.57C723.121 601.526 723.439 601.374 723.687 601.137C723.935 600.899 724.101 600.588 724.16 600.25L725.65 591.96C725.711 591.622 725.878 591.312 726.127 591.074C726.375 590.836 726.692 590.683 727.033 590.637C727.373 590.59 727.72 590.653 728.023 590.815C728.326 590.977 728.57 591.231 728.72 591.54L732.38 599.11C732.53 599.42 732.775 599.675 733.078 599.838C733.381 600.001 733.728 600.065 734.07 600.02L742.41 598.87C742.751 598.823 743.098 598.886 743.401 599.049C743.704 599.211 743.948 599.465 744.097 599.775C744.247 600.085 744.295 600.434 744.235 600.772C744.174 601.111 744.008 601.422 743.76 601.66L737.69 607.49C737.44 607.726 737.272 608.036 737.211 608.374C737.15 608.712 737.198 609.061 737.35 609.37L741.02 616.94C741.173 617.25 741.224 617.6 741.165 617.94C741.106 618.28 740.941 618.593 740.693 618.834C740.445 619.074 740.127 619.229 739.785 619.277C739.443 619.325 739.094 619.263 738.79 619.1V619.1Z" fill="#D1D1D1"/>
<path d="M371.41 466.78C386.62 466.78 398.95 446.633 398.95 421.78C398.95 396.927 386.62 376.78 371.41 376.78C356.2 376.78 343.87 396.927 343.87 421.78C343.87 446.633 356.2 466.78 371.41 466.78Z" fill="#CDCDCD"/>
<path d="M523.2 450.66C538.41 450.66 550.74 430.513 550.74 405.66C550.74 380.807 538.41 360.66 523.2 360.66C507.99 360.66 495.66 380.807 495.66 405.66C495.66 430.513 507.99 450.66 523.2 450.66Z" fill="#CDCDCD"/>
<path d="M777.01 486.53L774.54 539.56L236.41 594.89L0.669983 487.51V435.89L236.41 538.79L777.01 486.53Z" fill="#D1D1D1"/>
<path opacity="0.1" d="M236.41 538.79V594.89L0.669983 487.51V435.89L236.41 538.79Z" fill="black"/>
</g>
<defs>
<clipPath id="clip0">
<rect width="783.79" height="812" fill="white"/>
</clipPath>
</defs>
</svg>
