<svg width="1039" height="624" viewBox="0 0 1039 624" fill="none" xmlns="http://www.w3.org/2000/svg">
<g clip-path="url(#clip0)">
<path d="M991.511 593.792C977.615 619.668 248.062 617.496 249.168 593.79C263.064 567.916 992.617 570.088 991.511 593.792Z" fill="#D0CDE1"/>
<path d="M814.011 38.0764H691.549V144.073H814.011V38.0764Z" fill="#343434"/>
<path d="M627.745 67.92H276.825V359.153H627.745V67.92Z" fill="#3E3E3E"/>
<path d="M522.264 116.287H382.307V133.782H522.264V116.287Z" fill="white"/>
<path d="M421.927 157.451H324.678V167.742H421.927V157.451Z" fill="white"/>
<path d="M500.138 225.371H402.889V235.662H500.138V225.371Z" fill="white"/>
<path d="M578.349 157.451H481.1V167.742H578.349V157.451Z" fill="#707070"/>
<path d="M796.516 97.7636H708.015V102.528H796.516V97.7636Z" fill="#C2C0E8"/>
<path d="M795.487 108.245H706.985V113.009H795.487V108.245Z" fill="#C2C0E8"/>
<path d="M796.516 118.727H708.015V123.491H796.516V118.727Z" fill="#C2C0E8"/>
<path d="M796.516 62.7746H708.015V67.5389H796.516V62.7746Z" fill="#C2C0E8"/>
<path d="M795.487 73.256H706.985V78.0203H795.487V73.256Z" fill="#C2C0E8"/>
<path d="M796.516 83.7375H708.015V88.5018H796.516V83.7375Z" fill="#C2C0E8"/>
<path d="M849 73.0655H726.538V179.062H849V73.0655Z" fill="#3E3E3E"/>
<path d="M831.505 132.753H743.004V137.517H831.505V132.753Z" fill="#C2C0E8"/>
<path d="M830.476 143.234H741.975V147.999H830.476V143.234Z" fill="#C2C0E8"/>
<path d="M831.505 153.716H743.004V158.48H831.505V153.716Z" fill="#C2C0E8"/>
<path d="M831.505 97.7636H743.004V102.528H831.505V97.7636Z" fill="#C2C0E8"/>
<path d="M830.476 108.245H741.975V113.009H830.476V108.245Z" fill="#C2C0E8"/>
<path d="M831.505 118.727H743.004V123.491H831.505V118.727Z" fill="#C2C0E8"/>
<path d="M122.462 114.229H0V220.225H122.462V114.229Z" fill="#3E3E3E"/>
<path d="M104.967 173.916H16.4653V178.681H104.967V173.916Z" fill="#C2C0E8"/>
<path d="M103.938 184.398H15.4363V189.162H103.938V184.398Z" fill="#C2C0E8"/>
<path d="M104.967 194.879H16.4653V199.644H104.967V194.879Z" fill="#C2C0E8"/>
<path d="M104.967 138.927H16.4653V143.692H104.967V138.927Z" fill="#C2C0E8"/>
<path d="M103.938 149.409H15.4363V154.173H103.938V149.409Z" fill="#C2C0E8"/>
<path d="M104.967 159.89H16.4653V164.655H104.967V159.89Z" fill="#C2C0E8"/>
<path d="M579.893 191.411H324.678V201.702H579.893V191.411Z" fill="white"/>
<path d="M381.793 225.371H324.678V235.662H381.793V225.371Z" fill="#707070"/>
<path d="M381.793 293.291H324.678V303.582H381.793V293.291Z" fill="white"/>
<path d="M578.349 225.371H521.235V235.662H578.349V225.371Z" fill="white"/>
<path d="M579.893 259.331H324.678V269.622H579.893V259.331Z" fill="white"/>
<path d="M579.893 293.291H430.16V303.582H579.893V293.291Z" fill="white"/>
<path d="M555.497 163.222L553.863 161.971L665.313 16.465H775.935V18.524H666.33L555.497 163.222Z" fill="#2F2E41"/>
<path d="M330.698 231.298L167.362 91.589H57.6289V89.531H168.122L332.036 229.734L330.698 231.298Z" fill="#2F2E41"/>
<path d="M775.935 32.9309C785.028 32.9309 792.4 25.5591 792.4 16.4655C792.4 7.37183 785.028 0 775.935 0C766.841 0 759.469 7.37183 759.469 16.4655C759.469 25.5591 766.841 32.9309 775.935 32.9309Z" fill="#707070"/>
<path d="M57.629 107.025C66.7226 107.025 74.0945 99.6536 74.0945 90.56C74.0945 81.4664 66.7226 74.0946 57.629 74.0946C48.5354 74.0946 41.1636 81.4664 41.1636 90.56C41.1636 99.6536 48.5354 107.025 57.629 107.025Z" fill="#707070"/>
<path d="M919.804 576.379C919.804 576.379 943.814 495.593 852.505 449.598L919.804 576.379Z" fill="#D0CDE1"/>
<path d="M922.796 576.81C922.796 576.81 932.313 497.079 1038.66 492.081L922.796 576.81Z" fill="#D0CDE1"/>
<path d="M514.823 564.05L490.004 562.396L498.277 599.624L526.405 588.042L514.823 564.05Z" fill="#FFB9B9"/>
<path d="M742.332 494.556L684.421 438.3L651.329 463.946L585.971 542.54L593.417 554.122L672.839 500.348L726.613 570.669L777.906 545.022L742.332 494.556Z" fill="#313131"/>
<path d="M747.296 531.785L739.85 537.576L679.457 516.894L665.393 511.103L637.264 516.894C637.264 516.894 637.264 493.729 663.738 494.556L691.039 501.175L723.304 503.657L747.296 531.785Z" fill="#FFB9B9"/>
<path d="M801.071 593.006L782.87 604.588H761.36L661.256 567.359L514.823 593.833L510.686 562.396L644.71 503.657L762.188 542.54L801.071 593.006Z" fill="#343434"/>
<path d="M683.594 445.745L671.184 448.227L668.48 445.072C666.339 442.575 664.983 439.501 664.581 436.236C664.179 432.971 664.749 429.66 666.22 426.717V426.717L700.967 381.215C700.967 381.215 710.895 358.878 726.614 367.979C742.332 377.079 713.377 391.97 713.377 391.97L696.003 419.272L697.658 433.336L683.594 445.745Z" fill="#FFB9B9"/>
<path d="M762.188 391.97C780.007 391.97 794.453 377.525 794.453 359.705C794.453 341.886 780.007 327.441 762.188 327.441C744.368 327.441 729.923 341.886 729.923 359.705C729.923 377.525 744.368 391.97 762.188 391.97Z" fill="#FFB9B9"/>
<path d="M747.71 383.284L762.601 418.858L798.176 403.966C798.176 403.966 786.593 375.838 786.593 375.011C786.593 374.183 747.71 383.284 747.71 383.284Z" fill="#FFB9B9"/>
<path d="M845.671 488.525C845.671 507.998 842.602 527.349 836.579 545.866L834.163 553.295L822.581 606.243L810.171 609.552L801.071 597.97L782.87 584.733L769.633 563.223L758.283 544.311L754.742 538.404L742.332 476.356L695.176 449.882L679.457 447.4L682.766 438.3L696.83 419.272L710.895 417.617L715.031 414.308L718.34 415.962L731.577 408.517L735.714 410.171L759.904 412.421L774.597 409.344L795.727 398.001L804.38 399.416L834.163 424.235C841.777 444.815 845.674 466.583 845.671 488.525V488.525Z" fill="#ADADAD"/>
<path d="M497.622 576.861C497.622 576.861 505.032 564.302 501.903 562.836C498.773 561.37 485.481 555.524 485.481 555.524L465.989 549.065C465.989 549.065 437.863 507.264 437.245 543.614C436.628 579.965 457.725 588.703 457.725 588.703C457.725 588.703 476.54 629.196 487.198 622.739C497.857 616.282 508.522 594.363 508.522 594.363C508.522 594.363 489.302 584.031 497.622 576.861Z" fill="#343434"/>
<path opacity="0.1" d="M836.645 481.32L805.208 502.002L758.283 544.311L754.742 538.404L744.814 488.765H747.296L772.943 441.609L836.645 481.32Z" fill="black"/>
<path d="M772.943 436.645L747.296 483.801H738.196L732.405 500.348L719.168 503.657L754.742 542.54L805.208 497.038L836.645 476.356L772.943 436.645Z" fill="#ADADAD"/>
<path d="M737.092 335.715L733.596 337.06C733.059 336.696 732.599 336.228 732.244 335.684C731.89 335.14 731.647 334.531 731.531 333.892C731.415 333.253 731.427 332.598 731.568 331.964C731.708 331.33 731.974 330.73 732.349 330.2L725.889 329.898C730.036 324.375 735.308 319.795 741.358 316.462C747.407 313.129 754.095 311.118 760.979 310.564C767.864 310.009 774.788 310.922 781.293 313.243C787.798 315.564 793.736 319.24 798.714 324.028C799.008 323.015 802.214 324.986 803.523 326.984C803.963 325.336 806.969 333.304 808.033 338.937C808.525 337.061 810.418 340.089 808.759 342.994C809.81 342.84 810.285 345.529 809.471 347.026C810.621 346.486 810.427 349.695 809.181 351.839C810.821 351.694 796.245 374.315 790.344 387.535C788.63 379.662 786.704 371.371 781.178 365.506C780.239 364.509 779.21 363.601 778.184 362.695L772.63 357.793C766.172 352.092 760.297 345.057 751.694 342.926C745.782 341.462 742.044 341.132 745.266 334.469C742.355 335.684 739.637 337.491 736.699 338.619C736.739 337.688 737.149 336.646 737.092 335.715Z" fill="#2C2B36"/>
<path d="M778.32 369.219C781.518 369.219 784.111 366.627 784.111 363.428C784.111 360.23 781.518 357.637 778.32 357.637C775.122 357.637 772.529 360.23 772.529 363.428C772.529 366.627 775.122 369.219 778.32 369.219Z" fill="#FFB9B9"/>
</g>
<defs>
<clipPath id="clip0">
<rect width="1038.65" height="623.437" fill="white"/>
</clipPath>
</defs>
</svg>
